<?xml version="1.0" standalone="no"?>
<!DOCTYPE svg PUBLIC "-//W3C//DTD SVG 20010904//EN"
 "http://www.w3.org/TR/2001/REC-SVG-20010904/DTD/svg10.dtd">
<svg version="1.0" xmlns="http://www.w3.org/2000/svg"
 width="678.000000pt" height="555.000000pt" viewBox="0 0 678.000000 555.000000"
 preserveAspectRatio="xMidYMid meet">
<metadata>
Created by potrace 1.10, written by Peter Selinger 2001-2011
</metadata>
<g transform="translate(0.000000,555.000000) scale(0.100000,-0.100000)"
fill="#000000" stroke="none">
<path d="M3010 5180 c-85 -9 -207 -32 -295 -54 -33 -8 -80 -20 -105 -26 -24
-6 -49 -15 -55 -19 -5 -5 -25 -12 -43 -16 -18 -4 -45 -13 -60 -21 -15 -8 -33
-14 -40 -14 -7 0 -20 -4 -30 -10 -31 -17 -111 -50 -121 -50 -6 0 -11 -4 -11
-10 0 -5 -6 -10 -12 -10 -30 0 -197 -95 -333 -188 -168 -116 -248 -183 -417
-354 -70 -70 -134 -128 -143 -128 -18 0 -28 -7 -99 -75 -29 -27 -66 -72 -82
-100 -34 -56 -94 -178 -94 -189 0 -5 -6 -22 -14 -39 -8 -18 -19 -52 -25 -77
-22 -100 -51 -184 -69 -202 -7 -7 -12 -19 -12 -28 0 -8 -7 -28 -15 -44 -8 -15
-15 -37 -15 -48 0 -10 -6 -31 -14 -46 -17 -33 -34 -109 -46 -207 -5 -38 -14
-95 -21 -126 -21 -105 5 -569 46 -799 29 -165 40 -218 48 -226 4 -4 7 -15 7
-25 0 -10 6 -38 14 -61 7 -24 23 -74 35 -113 13 -38 29 -84 37 -102 8 -17 14
-38 14 -47 0 -9 4 -16 10 -16 5 0 12 -16 16 -35 3 -19 10 -35 15 -35 5 0 9 -5
9 -11 0 -16 72 -162 87 -177 7 -7 13 -18 13 -23 0 -12 137 -214 176 -260 71
-83 275 -281 339 -328 39 -28 75 -55 80 -59 6 -4 28 -19 50 -32 22 -13 42 -27
45 -30 13 -16 304 -160 324 -160 6 -1 29 -9 51 -20 22 -11 48 -19 57 -20 9 0
19 -4 22 -9 3 -5 26 -12 51 -15 24 -4 47 -11 50 -15 2 -5 26 -12 52 -16 27 -4
53 -10 58 -13 19 -13 289 -58 425 -72 117 -11 467 -11 575 0 125 13 325 52
356 70 9 5 33 12 53 15 20 4 39 11 42 16 3 5 13 9 22 9 9 1 35 9 57 20 22 11
48 19 58 20 9 0 17 4 17 10 0 5 16 12 35 16 19 3 35 10 35 15 0 5 5 9 11 9 12
0 99 40 109 50 3 3 25 16 50 29 47 25 271 170 280 181 3 4 43 38 90 76 104 84
269 249 347 347 32 39 63 77 68 83 6 6 16 20 23 30 7 11 41 62 77 114 36 52
65 100 65 107 0 7 4 13 9 13 5 0 14 12 20 28 6 15 29 61 51 102 22 41 40 81
40 88 0 6 4 12 10 12 5 0 12 16 16 35 3 19 10 35 15 35 5 0 9 8 9 18 1 9 9 35
20 57 11 22 19 48 20 57 0 9 4 19 9 22 5 4 12 25 16 49 4 23 11 47 15 52 4 6
11 30 15 55 4 25 10 50 14 55 8 13 27 120 49 270 29 208 17 660 -20 758 -8 20
-7 31 2 42 15 18 8 219 -10 285 -7 25 -19 70 -27 100 -8 30 -21 68 -29 83 -8
16 -14 37 -14 47 0 10 -4 21 -9 25 -6 3 -20 26 -33 52 -29 58 -118 150 -158
164 -16 6 -39 27 -52 47 -12 21 -27 42 -33 48 -5 6 -17 22 -25 34 -71 106
-313 353 -399 408 -14 9 -28 19 -31 22 -15 17 -93 72 -150 105 -36 21 -67 42
-70 45 -3 4 -27 17 -55 31 -27 13 -52 26 -55 29 -6 6 -206 104 -260 128 -19 8
-43 19 -52 23 -10 5 -23 9 -30 9 -7 0 -25 6 -40 14 -15 8 -42 17 -60 21 -18 4
-37 11 -43 15 -5 4 -28 11 -50 15 -22 4 -44 10 -50 15 -5 4 -32 10 -59 14 -27
3 -54 10 -60 15 -6 4 -44 11 -84 15 -41 3 -82 11 -93 16 -24 13 -509 21 -609
10z m605 -59 c55 -7 105 -17 110 -21 6 -4 37 -11 70 -15 33 -4 65 -10 70 -15
6 -4 30 -11 55 -15 25 -4 50 -11 55 -15 6 -4 25 -11 43 -15 18 -4 45 -13 60
-21 15 -8 37 -14 50 -14 12 0 22 -4 22 -10 0 -5 7 -10 16 -10 19 0 78 -26 214
-94 157 -79 194 -99 208 -113 7 -7 20 -13 28 -13 8 0 14 -4 14 -10 0 -5 4 -10
9 -10 16 0 212 -139 241 -170 3 -3 38 -34 78 -70 74 -64 194 -198 287 -319
l50 -63 -25 -22 c-78 -70 -82 -192 -12 -336 25 -52 104 -184 117 -195 6 -5 31
-36 55 -68 24 -32 71 -83 104 -113 67 -61 63 -48 85 -239 13 -105 13 -426 1
-540 -15 -133 -57 -357 -72 -380 -3 -6 -9 -28 -13 -50 -4 -22 -11 -44 -15 -50
-4 -5 -11 -25 -15 -43 -4 -18 -13 -45 -21 -60 -8 -15 -14 -33 -14 -40 0 -7 -4
-20 -9 -30 -5 -9 -37 -75 -72 -147 -52 -109 -142 -272 -171 -310 -4 -5 -36
-48 -70 -95 -82 -111 -101 -132 -238 -270 -96 -96 -164 -157 -278 -245 -7 -5
-18 -15 -25 -20 -7 -6 -30 -22 -52 -35 -22 -13 -42 -27 -45 -30 -24 -30 -414
-230 -448 -230 -5 0 -23 -7 -38 -15 -16 -8 -37 -15 -46 -15 -9 0 -19 -4 -22
-9 -4 -5 -25 -12 -49 -16 -23 -4 -46 -11 -52 -15 -10 -8 -81 -23 -190 -41 -33
-5 -82 -15 -110 -20 -68 -15 -519 -5 -665 15 -133 17 -250 38 -335 60 -33 8
-82 20 -110 27 -27 6 -54 15 -59 20 -6 5 -19 9 -30 9 -12 1 -39 9 -61 20 -22
11 -46 19 -53 20 -7 0 -20 4 -30 9 -9 6 -39 20 -67 32 -102 45 -222 107 -243
126 -7 7 -20 13 -28 13 -8 0 -14 3 -14 8 0 4 -17 16 -37 27 -20 11 -41 25 -47
30 -6 6 -42 35 -81 65 -88 69 -203 183 -282 280 -72 88 -193 268 -193 287 0 7
-4 13 -9 13 -5 0 -12 12 -16 27 -3 15 -10 30 -13 33 -8 6 -33 56 -62 125 -11
28 -25 58 -30 67 -6 10 -10 23 -10 30 0 7 -6 25 -14 40 -8 15 -17 42 -21 60
-4 18 -11 38 -15 43 -4 6 -13 33 -19 60 -7 28 -19 77 -27 110 -20 79 -42 192
-55 285 -5 41 -14 98 -20 125 -15 72 -23 565 -11 650 23 156 35 220 43 230 5
5 9 17 9 27 0 9 6 37 14 60 8 24 17 60 21 81 13 79 50 24 71 -108 11 -67 15
-75 34 -75 10 0 21 8 25 19 7 22 -9 102 -29 146 -55 121 -8 335 119 550 35 59
113 145 132 145 7 0 13 4 13 9 0 6 21 12 48 16 26 3 71 13 100 22 43 14 52 21
52 40 0 28 1 28 -55 -1 -46 -25 -46 -25 -39 -3 11 36 175 190 342 322 7 5 18
15 25 21 48 43 305 204 325 204 6 0 12 3 14 8 4 9 91 52 107 52 6 0 11 5 11
10 0 6 6 10 13 10 6 1 30 9 52 20 22 11 48 19 57 20 9 0 18 3 20 8 4 10 222
82 247 82 11 0 22 4 25 9 3 5 34 12 68 16 35 4 68 11 73 15 6 4 59 13 120 20
60 6 112 13 114 16 10 10 450 -3 546 -15z m1740 -1071 c-3 -5 -15 -10 -26 -10
-10 0 -19 5 -19 10 0 6 12 10 26 10 14 0 23 -4 19 -10z m68 -44 c22 -17 22
-26 -3 -26 -28 0 -25 -28 3 -35 14 -4 34 -26 52 -58 34 -59 84 -175 85 -196 0
-8 7 -23 16 -33 24 -26 26 -216 3 -231 -19 -12 -40 8 -117 108 -26 33 -55 69
-65 80 -10 11 -28 40 -39 65 -11 25 -33 72 -48 105 -29 61 -49 131 -50 173 0
15 6 22 19 22 11 0 21 5 23 12 2 6 24 14 49 18 24 4 46 8 49 8 3 1 13 -5 23
-12z m197 -611 c0 -8 -4 -15 -10 -15 -5 0 -10 7 -10 15 0 8 5 15 10 15 6 0 10
-7 10 -15z"/>
<path d="M3280 5044 c-25 -8 -69 -22 -98 -32 -58 -18 -108 -58 -117 -94 -13
-52 64 -164 134 -195 25 -11 70 -16 151 -17 86 -1 124 -6 149 -19 19 -9 38
-17 42 -17 4 0 20 -5 36 -12 133 -54 216 -62 283 -28 55 28 74 60 67 112 -3
22 -9 44 -14 47 -5 3 -16 18 -25 33 -26 40 -124 110 -213 152 -44 21 -88 42
-98 47 -10 5 -61 14 -115 19 -53 5 -106 12 -117 14 -11 3 -40 -2 -65 -10z
m177 -69 c60 -4 83 -12 198 -70 72 -37 142 -78 157 -92 43 -41 79 -98 73 -115
-8 -20 -120 -51 -143 -40 -9 5 -36 12 -58 16 -23 3 -54 13 -70 21 -16 8 -34
15 -40 15 -7 0 -25 7 -40 15 -16 8 -36 15 -45 15 -8 0 -19 4 -25 9 -5 5 -63
11 -129 13 -133 3 -152 11 -203 83 -20 28 -22 37 -12 55 12 23 102 70 135 70
11 0 27 5 35 10 8 6 34 8 57 5 23 -3 72 -8 110 -10z"/>
<path d="M3338 4928 c-17 -10 -18 -10 90 -12 50 -1 92 1 92 6 0 4 -12 8 -27 9
-16 0 -54 2 -85 3 -32 1 -63 -1 -70 -6z"/>
<path d="M2920 4885 c-30 -19 -61 -35 -67 -35 -7 0 -13 -9 -13 -20 0 -35 51
-25 110 21 42 33 49 43 39 55 -6 8 -12 14 -13 14 0 0 -26 -16 -56 -35z"/>
<path d="M3001 4775 c-24 -26 -23 -55 3 -55 18 0 58 49 53 64 -7 20 -32 16
-56 -9z"/>
<path d="M3070 4704 c-13 -34 -13 -34 10 -34 18 0 40 26 40 49 0 23 -41 11
-50 -15z"/>
<path d="M3957 4673 c-4 -3 -7 -28 -7 -55 0 -51 22 -98 46 -98 22 0 18 88 -6
128 -21 34 -23 36 -33 25z"/>
<path d="M2223 4585 c-89 -33 -191 -98 -235 -150 -28 -33 -69 -124 -89 -196
-48 -175 3 -345 110 -365 44 -9 136 10 157 31 8 8 24 15 33 15 10 0 24 7 31
15 7 8 17 15 22 15 32 0 198 164 198 196 0 4 6 15 13 23 17 21 43 101 58 184
21 112 -13 201 -93 243 -40 21 -133 16 -205 -11z m226 -66 c68 -83 11 -323
-107 -447 -26 -27 -54 -52 -62 -56 -8 -3 -28 -15 -45 -26 -103 -68 -204 -90
-238 -52 -23 25 -47 97 -47 140 0 52 19 153 36 185 8 16 14 35 14 43 0 24 67
108 112 141 99 70 184 103 260 100 46 -3 60 -8 77 -28z"/>
<path d="M2285 4493 c-16 -3 -37 -11 -45 -18 -8 -7 -25 -16 -37 -19 -13 -4
-23 -11 -23 -16 0 -4 -10 -10 -23 -14 -13 -3 -36 -17 -51 -31 -15 -14 -31 -25
-37 -25 -5 0 -9 -6 -9 -14 0 -8 -7 -16 -15 -20 -17 -6 -21 -56 -5 -56 6 0 13
8 17 18 9 25 44 62 61 62 7 0 33 16 56 35 24 19 46 35 50 35 4 0 14 7 22 15 9
8 23 15 33 15 10 0 26 9 36 20 10 11 14 19 9 19 -5 -1 -22 -4 -39 -6z"/>
<path d="M3830 4551 c0 -11 -9 -23 -20 -26 -29 -9 -25 -31 9 -48 44 -22 62 6
45 71 -8 27 -34 29 -34 3z"/>
<path d="M2550 4510 c0 -16 5 -30 10 -30 6 0 10 14 10 30 0 17 -4 30 -10 30
-5 0 -10 -13 -10 -30z"/>
<path d="M2579 4455 c-3 -6 -6 -39 -8 -75 -1 -36 -6 -69 -11 -75 -14 -18 -24
-105 -11 -105 14 0 14 0 36 105 11 57 14 92 8 120 -5 22 -11 35 -14 30z"/>
<path d="M4442 4410 c-70 -38 -98 -92 -72 -141 6 -11 29 -31 52 -45 23 -15 70
-55 104 -89 71 -71 153 -125 189 -125 65 0 156 72 176 141 15 50 2 82 -59 141
-114 111 -299 167 -390 118z m168 -60 c172 -68 258 -183 190 -255 -19 -20 -33
-25 -75 -25 -57 0 -64 4 -162 94 -35 33 -86 75 -113 94 -54 37 -61 58 -31 84
39 33 119 36 191 8z"/>
<path d="M4521 4331 c-10 -7 -8 -12 10 -25 27 -18 98 -40 106 -32 12 12 -8 36
-29 36 -13 0 -32 7 -42 15 -23 17 -26 18 -45 6z"/>
<path d="M4642 4243 c2 -10 13 -19 24 -21 30 -4 94 -66 94 -91 0 -26 16 -28
23 -1 11 43 -50 111 -111 125 -30 6 -33 5 -30 -12z"/>
<path d="M1640 4262 c0 -10 5 -23 12 -30 14 -14 16 -172 2 -193 -8 -13 -33
-94 -34 -111 0 -5 11 -8 25 -8 21 0 25 5 25 28 0 15 7 41 16 57 20 38 23 237
4 260 -18 21 -50 19 -50 -3z"/>
<path d="M2558 4141 c-10 -10 -18 -22 -18 -28 0 -5 -9 -18 -20 -28 -25 -22
-26 -45 -2 -45 23 0 82 79 82 111 0 15 -24 9 -42 -10z"/>
<path d="M4976 4101 c-15 -24 9 -31 104 -31 89 0 124 9 106 27 -11 12 -203 15
-210 4z"/>
<path d="M3893 4053 c-5 -11 4 -25 28 -42 68 -52 116 -101 134 -138 10 -21 22
-46 27 -56 5 -10 16 -62 24 -115 12 -80 12 -110 2 -170 -9 -55 -9 -75 0 -84 9
-9 16 0 32 36 18 40 21 61 17 149 -8 191 -50 285 -179 393 -7 5 -28 17 -46 27
-30 15 -34 15 -39 0z"/>
<path d="M2405 4020 c-16 -16 -47 -42 -69 -57 -23 -16 -42 -31 -44 -35 -2 -5
-12 -8 -22 -8 -9 0 -23 -6 -30 -14 -6 -8 -23 -16 -37 -18 -35 -4 -43 -28 -9
-28 27 0 93 27 114 48 7 6 17 12 21 12 13 0 121 105 121 118 0 20 -14 14 -45
-18z"/>
<path d="M1550 4000 c0 -22 -7 -57 -15 -77 -8 -19 -15 -43 -15 -52 0 -9 -7
-29 -15 -45 -8 -15 -15 -39 -15 -52 0 -14 -7 -27 -15 -30 -8 -4 -15 -17 -15
-30 0 -15 -6 -24 -15 -24 -20 0 -19 37 1 48 13 7 15 17 10 38 l-8 29 -24 -30
c-13 -16 -24 -36 -24 -43 0 -7 -10 -26 -21 -41 -22 -30 -19 -51 6 -51 7 0 17
10 21 22 l6 21 19 -24 18 -24 18 25 c52 74 101 199 121 310 11 62 9 70 -19 70
-16 0 -19 -7 -19 -40z"/>
<path d="M3517 3980 c-151 -63 -242 -169 -268 -312 -39 -211 99 -406 318 -453
78 -17 86 -17 145 -1 35 10 82 27 106 38 66 31 155 119 193 191 32 60 33 65
32 177 0 86 -4 122 -17 145 -9 17 -16 34 -16 38 0 5 -16 32 -34 60 -90 134
-293 186 -459 117z m329 -74 c129 -77 183 -228 138 -382 -44 -152 -193 -257
-364 -257 -79 0 -141 25 -203 82 -51 47 -80 101 -102 188 -17 70 -10 123 28
198 54 108 118 167 227 209 8 3 60 4 115 2 95 -3 103 -5 161 -40z"/>
<path d="M3870 3798 c0 -6 11 -26 25 -44 22 -29 25 -43 25 -113 0 -94 14 -107
24 -22 8 65 2 100 -22 148 -15 31 -52 52 -52 31z"/>
<path d="M3512 3363 c4 -24 45 -43 95 -43 51 0 73 8 73 27 0 11 -9 13 -43 8
-30 -5 -55 -2 -81 9 -48 20 -48 20 -44 -1z"/>
<path d="M5030 3945 c-12 -14 -12 -18 1 -26 15 -9 96 -5 107 5 11 12 -16 28
-55 33 -29 4 -42 1 -53 -12z"/>
<path d="M2100 3851 c0 -16 19 -23 40 -16 30 10 24 25 -10 25 -16 0 -30 -4
-30 -9z"/>
<path d="M1134 3796 c-3 -8 -1 -31 5 -53 6 -21 11 -61 11 -90 0 -61 7 -83 26
-83 20 0 19 155 -1 204 -16 37 -32 46 -41 22z"/>
<path d="M5080 3757 c0 -20 26 -39 47 -35 10 2 18 12 18 23 0 15 -8 21 -32 23
-24 2 -33 -1 -33 -11z"/>
<path d="M5291 3381 c-53 -47 -54 -49 -33 -60 20 -11 27 -7 72 39 28 28 50 56
50 61 0 22 -39 5 -89 -40z"/>
<path d="M2564 3349 c-11 -18 55 -74 69 -60 9 9 8 19 -3 39 -17 29 -53 41 -66
21z"/>
<path d="M5498 3296 c-10 -7 -18 -18 -18 -25 0 -6 -4 -11 -9 -11 -15 0 -60
-88 -64 -124 -3 -26 31 -34 39 -9 10 33 38 88 66 127 16 21 28 43 28 48 0 12
-23 9 -42 -6z"/>
<path d="M2336 3274 c-4 -9 -5 -19 -3 -21 7 -7 57 16 57 27 0 17 -47 11 -54
-6z"/>
<path d="M2446 3263 c-30 -8 -88 -47 -117 -79 -69 -75 -66 -210 5 -279 75 -73
174 -86 247 -33 54 38 69 59 91 123 23 64 23 99 -3 152 -31 64 -93 111 -154
117 -28 2 -59 2 -69 -1z m91 -54 c6 -6 21 -16 33 -23 13 -6 32 -28 44 -48 17
-31 19 -41 9 -57 -6 -10 -9 -28 -6 -39 8 -32 -15 -89 -48 -116 -43 -37 -88
-42 -133 -17 -20 12 -42 21 -48 21 -6 0 -20 7 -30 17 -14 13 -18 31 -18 89 0
69 2 74 33 104 71 66 138 95 164 69z"/>
<path d="M2754 3096 c-11 -29 1 -51 26 -51 31 0 40 33 14 52 -23 17 -33 16
-40 -1z"/>
<path d="M1445 2874 c-57 -15 -135 -64 -135 -86 0 -11 43 -10 56 1 5 4 34 16
64 26 73 23 178 23 227 0 41 -19 103 -73 103 -90 0 -18 41 -38 53 -26 21 21
-39 105 -108 149 -35 23 -52 26 -140 28 -55 2 -109 0 -120 -2z"/>
<path d="M4595 2873 c-31 -8 -76 -43 -70 -54 9 -14 63 -11 67 4 7 20 198 23
236 3 17 -9 40 -16 51 -16 11 0 24 -7 29 -17 9 -16 42 -13 42 4 0 11 -58 43
-76 43 -8 0 -26 7 -39 16 -25 16 -199 29 -240 17z"/>
<path d="M4321 2793 c-11 -15 -25 -33 -30 -39 -5 -6 -19 -33 -30 -60 -12 -27
-25 -56 -30 -64 -5 -9 -12 -31 -16 -50 -4 -19 -11 -39 -15 -45 -15 -19 -22
-112 -10 -120 22 -14 35 13 59 127 5 21 13 43 18 50 6 7 13 25 17 41 7 28 60
122 84 146 7 7 11 18 9 25 -7 22 -35 17 -56 -11z"/>
<path d="M4660 2760 c-83 -31 -115 -49 -171 -94 -61 -48 -133 -137 -162 -201
-41 -87 -46 -103 -63 -177 -17 -74 -17 -79 1 -140 15 -49 30 -74 70 -113 67
-68 122 -94 227 -108 88 -11 216 1 257 24 9 5 27 13 41 18 44 17 134 96 174
153 47 69 86 177 86 241 0 101 -65 268 -130 336 -61 63 -108 81 -203 80 -50
-1 -99 -8 -127 -19z m297 -115 c40 -23 81 -105 53 -105 -5 0 -10 7 -10 15 0 8
-7 15 -15 15 -19 0 -19 -21 0 -46 10 -14 14 -47 15 -122 0 -99 -1 -103 -24
-111 -27 -11 -37 -31 -29 -61 4 -16 -8 -34 -57 -81 -34 -32 -68 -59 -75 -59
-7 0 -26 -7 -41 -15 -16 -8 -46 -15 -67 -15 -39 0 -59 -22 -39 -42 13 -13 96
5 161 35 56 26 131 100 131 131 0 12 9 31 20 41 11 10 20 25 20 33 0 9 7 24
17 34 11 13 18 46 23 111 l7 92 1 -113 c2 -103 0 -118 -25 -170 -34 -75 -73
-123 -131 -165 -83 -59 -132 -72 -265 -71 -72 1 -123 6 -130 13 -6 6 -19 11
-29 11 -17 0 -75 35 -100 61 -8 8 -24 31 -37 52 -20 32 -23 48 -18 95 5 61 12
75 98 204 57 84 182 218 205 218 6 0 17 7 24 15 10 12 15 12 36 -2 22 -14 26
-14 47 0 33 21 62 26 138 23 41 -2 77 -10 96 -21z"/>
<path d="M4340 2214 c0 -50 5 -66 33 -106 17 -27 38 -48 45 -48 6 0 12 -5 12
-11 0 -5 14 -15 30 -20 17 -6 30 -15 30 -20 0 -13 27 -11 35 2 8 11 -22 49
-39 49 -37 1 -109 100 -116 158 -8 70 -30 67 -30 -4z"/>
<path d="M1424 2704 c-52 -19 -99 -64 -124 -122 -25 -57 -27 -176 -4 -247 46
-139 141 -283 256 -390 68 -63 72 -65 123 -65 49 0 54 2 99 50 43 46 48 56 53
108 3 31 0 84 -7 117 -6 33 -17 92 -24 130 -7 39 -18 83 -24 98 -7 16 -12 33
-12 38 0 5 -4 17 -9 27 -6 9 -20 40 -33 67 -29 62 -32 68 -89 126 -35 35 -61
51 -102 63 -30 9 -57 16 -59 15 -1 0 -21 -7 -44 -15z m137 -64 c66 -55 72 -63
108 -135 43 -88 61 -135 61 -159 0 -14 4 -27 9 -30 4 -3 11 -33 14 -66 4 -34
11 -70 17 -80 20 -38 24 -135 6 -170 -9 -18 -16 -39 -16 -47 0 -8 -13 -13 -38
-13 -30 0 -47 9 -90 46 -94 82 -194 229 -241 354 -30 78 -29 204 0 263 27 53
33 57 95 57 36 0 58 -6 75 -20z"/>
<path d="M1421 2527 c-8 -24 -7 -51 4 -112 9 -44 20 -84 25 -89 6 -6 10 -18
10 -28 0 -20 39 -60 52 -52 4 3 1 15 -7 27 -8 12 -15 30 -15 40 0 10 -7 29
-16 42 -12 18 -17 50 -17 115 -1 96 -16 119 -36 57z"/>
<path d="M1550 2162 c0 -19 91 -116 127 -135 10 -6 21 -15 24 -20 4 -5 15 -7
25 -3 16 6 4 21 -71 91 -50 46 -93 84 -97 85 -5 0 -8 -8 -8 -18z"/>
<path d="M2545 2501 c-3 -5 -10 -29 -15 -53 -21 -101 -32 -138 -40 -138 -12 0
-19 -36 -9 -51 6 -11 13 -8 33 11 15 13 26 28 26 34 0 6 6 23 14 38 17 33 30
120 21 147 -7 22 -20 27 -30 12z"/>
<path d="M2776 2464 c-3 -9 -6 -35 -6 -59 0 -24 -5 -45 -12 -47 -13 -5 -4 -38
10 -38 4 0 17 6 27 14 14 10 20 30 23 80 4 61 3 66 -16 66 -11 0 -23 -7 -26
-16z"/>
<path d="M1880 2437 c0 -7 6 -19 12 -25 20 -20 23 -208 4 -262 -18 -53 -7 -73
24 -45 11 10 20 25 20 34 0 9 7 43 15 75 14 53 14 66 -2 147 -16 87 -18 89
-45 89 -16 0 -28 -5 -28 -13z"/>
<path d="M3004 2315 c-19 -29 -10 -48 19 -39 26 8 37 22 37 47 0 26 -37 21
-56 -8z"/>
<path d="M2670 2218 c-100 -21 -214 -98 -244 -164 -9 -22 -21 -47 -26 -56 -21
-38 -1 -181 37 -268 6 -14 14 -32 17 -40 4 -8 15 -28 26 -45 11 -16 23 -37 27
-45 17 -36 147 -166 176 -176 9 -3 17 -9 17 -14 0 -4 11 -11 25 -14 14 -4 25
-11 25 -16 0 -6 7 -10 16 -10 9 0 28 -6 42 -14 89 -48 275 -63 349 -29 57 27
133 109 133 145 0 7 7 27 16 43 12 22 17 58 17 135 1 199 -66 350 -204 456
-130 100 -303 143 -449 112z m144 -89 c260 -46 420 -206 448 -446 21 -177 -36
-288 -161 -314 -92 -19 -284 15 -329 58 -7 7 -19 13 -25 13 -21 0 -135 98
-172 148 -19 26 -38 52 -42 57 -5 6 -18 33 -31 60 -13 28 -28 59 -34 69 -16
29 -26 176 -15 220 28 111 178 168 361 135z"/>
<path d="M2480 1917 c0 -24 7 -52 15 -63 8 -10 15 -25 15 -32 0 -7 6 -19 13
-26 6 -8 19 -23 27 -36 8 -12 24 -32 35 -44 11 -13 32 -37 48 -54 15 -18 31
-32 36 -32 18 0 23 21 8 33 -22 19 -130 168 -149 207 -9 19 -19 47 -22 63 -10
42 -26 32 -26 -16z"/>
<path d="M2810 1508 c1 -25 110 -81 126 -65 9 9 -25 47 -43 47 -7 0 -16 7 -19
15 -7 18 -64 21 -64 3z"/>
<path d="M1834 1915 c-59 -61 -105 -79 -176 -69 -77 11 -71 -27 8 -44 65 -14
149 21 211 88 33 35 44 81 21 79 -7 0 -36 -25 -64 -54z"/>
<path d="M3495 1952 c-11 -2 -24 -9 -30 -16 -5 -7 -20 -18 -32 -25 -25 -13
-32 -61 -10 -61 7 0 28 13 47 30 18 16 37 31 42 32 6 2 8 13 6 24 -2 13 -9 18
-23 16z"/>
<path d="M4975 1913 c-57 -13 -114 -52 -195 -131 -84 -82 -109 -122 -76 -122
8 0 47 33 88 73 78 77 129 117 151 117 7 0 17 4 23 9 5 6 29 11 54 13 37 2 45
6 45 23 0 16 -7 20 -35 22 -19 0 -44 -1 -55 -4z"/>
<path d="M4960 1769 c-53 -28 -127 -98 -157 -149 -44 -73 -73 -138 -73 -162 0
-13 -4 -30 -10 -38 -7 -11 -11 -9 -19 13 -14 37 -46 37 -36 0 3 -16 13 -35 21
-44 8 -8 14 -26 14 -40 0 -27 45 -76 55 -59 3 5 -1 13 -9 16 -17 7 -22 54 -6
54 6 0 10 -3 10 -7 0 -20 65 -43 118 -43 113 1 261 107 297 213 17 52 17 55 0
103 -25 65 -42 92 -83 132 -39 37 -69 39 -122 11z m124 -98 c18 -35 26 -63 25
-97 -1 -45 -1 -47 -11 -21 -11 31 -30 31 -38 1 -3 -11 -25 -38 -50 -60 -25
-21 -51 -45 -58 -51 -7 -7 -20 -13 -28 -13 -8 0 -14 -7 -14 -15 0 -9 9 -15 25
-15 14 0 25 -4 25 -10 0 -5 -13 -10 -29 -10 -16 0 -41 -6 -56 -14 -25 -13 -32
-13 -57 0 -38 20 -55 57 -40 87 6 12 14 37 17 55 4 17 10 32 15 32 4 0 11 12
14 26 8 30 15 40 75 101 24 24 60 52 80 62 46 22 67 10 105 -58z m-45 -232
c-45 -41 -69 -49 -69 -24 0 8 6 15 14 15 8 0 16 7 20 15 3 8 12 15 19 15 8 0
22 9 33 21 11 13 20 16 22 9 3 -7 -15 -29 -39 -51z"/>
<path d="M3465 1553 c-12 -2 -34 -15 -50 -28 -24 -19 -28 -26 -17 -36 10 -11
23 -10 68 6 43 14 62 16 82 9 36 -14 52 -7 52 21 0 15 -7 25 -22 29 -24 6 -80
6 -113 -1z"/>
<path d="M4180 1340 c-79 -12 -173 -34 -187 -43 -7 -4 -35 -11 -63 -14 -36 -4
-54 -12 -61 -26 -17 -31 3 -43 48 -28 40 12 100 26 193 42 30 6 78 15 107 21
66 14 138 6 172 -19 29 -22 41 -84 21 -108 -14 -16 -4 -55 13 -55 27 0 37 19
43 77 6 52 3 67 -14 95 -12 18 -31 39 -44 47 -27 17 -149 23 -228 11z"/>
<path d="M3985 1112 c-16 -8 -48 -27 -70 -41 -82 -53 -139 -76 -224 -91 -25
-4 -75 -14 -111 -20 -36 -6 -87 -18 -114 -26 -26 -8 -59 -14 -71 -14 -12 0
-36 -7 -51 -15 -16 -8 -36 -15 -45 -15 -19 0 -126 -56 -146 -75 -7 -8 -13 -21
-13 -31 0 -26 63 -97 106 -119 22 -10 46 -24 54 -31 22 -17 103 -41 201 -60
81 -15 93 -15 195 1 162 25 232 52 326 122 31 24 59 43 63 43 15 0 115 82 142
117 85 108 104 163 69 202 -10 11 -42 31 -72 45 -45 21 -68 26 -132 25 -48 -1
-88 -7 -107 -17z m220 -52 c51 -19 42 -66 -25 -138 -22 -23 -40 -49 -40 -57 0
-8 -8 -15 -18 -15 -9 0 -42 -20 -72 -45 -30 -25 -61 -43 -69 -40 -15 6 -61
-33 -61 -52 0 -15 -4 -15 -80 -18 -30 -1 -91 -6 -135 -13 -115 -16 -345 -10
-356 9 -4 9 -27 24 -51 33 -128 53 -128 68 -3 117 48 18 192 50 330 74 147 24
261 62 298 99 19 19 79 48 117 57 40 9 127 3 165 -11z"/>
<path d="M4035 897 c-11 -7 -24 -18 -28 -24 -4 -7 -15 -13 -22 -13 -8 0 -15
-4 -15 -9 0 -5 -10 -13 -22 -17 -12 -3 -28 -13 -36 -20 -7 -8 -21 -14 -30 -14
-35 -1 -73 -50 -39 -50 18 0 75 28 82 41 4 5 12 9 20 9 22 0 123 73 129 92 5
21 -10 22 -39 5z"/>
<path d="M3560 1103 c-8 -2 -24 -9 -35 -14 -11 -5 -56 -13 -100 -19 -267 -32
-319 -49 -379 -124 -28 -34 -31 -45 -30 -101 2 -120 34 -128 38 -9 2 41 7 69
14 72 7 2 12 9 12 16 0 13 65 47 120 65 19 5 73 13 120 16 101 8 212 31 258
53 53 27 38 64 -18 45z"/>
</g>
</svg>
